<mxfile host="app.diagrams.net" agent="Mozilla/5.0 (Windows NT 10.0; Win64; x64) AppleWebKit/537.36 (KHTML, like Gecko) Chrome/132.0.0.0 Safari/537.36" version="26.0.13">
  <diagram name="第 1 页" id="zyt6ciu9m087F2HnFS1-">
    <mxGraphModel dx="954" dy="558" grid="1" gridSize="10" guides="1" tooltips="1" connect="1" arrows="1" fold="1" page="1" pageScale="1" pageWidth="1169" pageHeight="827" math="0" shadow="0">
      <root>
        <mxCell id="0" />
        <mxCell id="1" parent="0" />
        <mxCell id="AHRMzwFQ7VdDUi4KUTGy-7" value="" style="ellipse;whiteSpace=wrap;html=1;aspect=fixed;fillColor=none;" vertex="1" parent="1">
          <mxGeometry x="240" y="161.85" width="118.15" height="118.15" as="geometry" />
        </mxCell>
        <mxCell id="AHRMzwFQ7VdDUi4KUTGy-4" value="" style="group;rotation=-240;" vertex="1" connectable="0" parent="1">
          <mxGeometry x="259" y="207.99999999999994" width="80.34295593500133" height="21.69505016061919" as="geometry" />
        </mxCell>
        <mxCell id="AHRMzwFQ7VdDUi4KUTGy-5" value="N" style="rounded=0;whiteSpace=wrap;html=1;fillColor=#FF0000;fontColor=#ffffff;strokeColor=#B20000;rotation=-599;" vertex="1" parent="AHRMzwFQ7VdDUi4KUTGy-4">
          <mxGeometry x="31" y="-17" width="40" height="20" as="geometry" />
        </mxCell>
        <mxCell id="AHRMzwFQ7VdDUi4KUTGy-6" value="S" style="rounded=0;whiteSpace=wrap;html=1;rotation=-599;" vertex="1" parent="AHRMzwFQ7VdDUi4KUTGy-4">
          <mxGeometry x="11" y="17" width="40" height="20" as="geometry" />
        </mxCell>
        <mxCell id="AHRMzwFQ7VdDUi4KUTGy-14" value="" style="group" vertex="1" connectable="0" parent="1">
          <mxGeometry x="290" y="40" width="60.170000000000016" height="121.85" as="geometry" />
        </mxCell>
        <mxCell id="AHRMzwFQ7VdDUi4KUTGy-9" value="" style="endArrow=none;html=1;rounded=0;" edge="1" parent="AHRMzwFQ7VdDUi4KUTGy-14">
          <mxGeometry width="50" height="50" relative="1" as="geometry">
            <mxPoint x="10" y="121.85" as="sourcePoint" />
            <mxPoint x="10" y="100" as="targetPoint" />
          </mxGeometry>
        </mxCell>
        <mxCell id="AHRMzwFQ7VdDUi4KUTGy-11" value="" style="pointerEvents=1;verticalLabelPosition=bottom;shadow=0;dashed=0;align=center;html=1;verticalAlign=top;shape=mxgraph.electrical.inductors.inductor_3;direction=south;" vertex="1" parent="AHRMzwFQ7VdDUi4KUTGy-14">
          <mxGeometry x="10.170000000000016" y="70" width="8" height="32" as="geometry" />
        </mxCell>
        <mxCell id="AHRMzwFQ7VdDUi4KUTGy-12" value="" style="pointerEvents=1;verticalLabelPosition=bottom;shadow=0;dashed=0;align=center;html=1;verticalAlign=top;shape=mxgraph.electrical.resistors.resistor_2;direction=south;" vertex="1" parent="AHRMzwFQ7VdDUi4KUTGy-14">
          <mxGeometry y="25" width="20.17" height="46" as="geometry" />
        </mxCell>
        <mxCell id="AHRMzwFQ7VdDUi4KUTGy-13" value="" style="endArrow=none;html=1;rounded=0;" edge="1" parent="AHRMzwFQ7VdDUi4KUTGy-14">
          <mxGeometry width="50" height="50" relative="1" as="geometry">
            <mxPoint x="10.170000000000016" y="25" as="sourcePoint" />
            <mxPoint x="10" as="targetPoint" />
          </mxGeometry>
        </mxCell>
        <mxCell id="AHRMzwFQ7VdDUi4KUTGy-15" value="R&lt;span style=&quot;font-size: 8.33333px;&quot;&gt;&lt;sub&gt;s&lt;/sub&gt;&lt;/span&gt;" style="text;html=1;align=center;verticalAlign=middle;resizable=0;points=[];autosize=1;strokeColor=none;fillColor=none;" vertex="1" parent="AHRMzwFQ7VdDUi4KUTGy-14">
          <mxGeometry x="20.170000000000016" y="33" width="40" height="30" as="geometry" />
        </mxCell>
        <mxCell id="AHRMzwFQ7VdDUi4KUTGy-16" value="L&lt;span style=&quot;font-size: 10px;&quot;&gt;&lt;sub&gt;A&lt;/sub&gt;&lt;/span&gt;" style="text;html=1;align=center;verticalAlign=middle;resizable=0;points=[];autosize=1;strokeColor=none;fillColor=none;" vertex="1" parent="AHRMzwFQ7VdDUi4KUTGy-14">
          <mxGeometry x="20.170000000000016" y="72" width="40" height="30" as="geometry" />
        </mxCell>
        <mxCell id="AHRMzwFQ7VdDUi4KUTGy-24" value="i&lt;sub&gt;A&lt;/sub&gt;" style="text;html=1;align=center;verticalAlign=middle;resizable=0;points=[];autosize=1;strokeColor=none;fillColor=none;" vertex="1" parent="AHRMzwFQ7VdDUi4KUTGy-14">
          <mxGeometry x="25.170000000000016" y="3" width="30" height="30" as="geometry" />
        </mxCell>
        <mxCell id="AHRMzwFQ7VdDUi4KUTGy-38" value="" style="endArrow=classic;html=1;rounded=0;" edge="1" parent="AHRMzwFQ7VdDUi4KUTGy-14">
          <mxGeometry width="50" height="50" relative="1" as="geometry">
            <mxPoint x="50" y="3" as="sourcePoint" />
            <mxPoint x="50" y="40" as="targetPoint" />
          </mxGeometry>
        </mxCell>
        <mxCell id="AHRMzwFQ7VdDUi4KUTGy-25" value="" style="group;rotation=125;" vertex="1" connectable="0" parent="1">
          <mxGeometry x="350" y="250" width="68.09" height="121.85" as="geometry" />
        </mxCell>
        <mxCell id="AHRMzwFQ7VdDUi4KUTGy-26" value="" style="endArrow=none;html=1;rounded=0;" edge="1" parent="AHRMzwFQ7VdDUi4KUTGy-25">
          <mxGeometry width="50" height="50" relative="1" as="geometry">
            <mxPoint x="-8" y="11" as="sourcePoint" />
            <mxPoint x="10" y="23" as="targetPoint" />
          </mxGeometry>
        </mxCell>
        <mxCell id="AHRMzwFQ7VdDUi4KUTGy-27" value="" style="pointerEvents=1;verticalLabelPosition=bottom;shadow=0;dashed=0;align=center;html=1;verticalAlign=top;shape=mxgraph.electrical.inductors.inductor_3;direction=south;rotation=125;" vertex="1" parent="AHRMzwFQ7VdDUi4KUTGy-25">
          <mxGeometry x="15" y="18" width="8" height="32" as="geometry" />
        </mxCell>
        <mxCell id="AHRMzwFQ7VdDUi4KUTGy-28" value="" style="pointerEvents=1;verticalLabelPosition=bottom;shadow=0;dashed=0;align=center;html=1;verticalAlign=top;shape=mxgraph.electrical.resistors.resistor_2;direction=south;rotation=125;" vertex="1" parent="AHRMzwFQ7VdDUi4KUTGy-25">
          <mxGeometry x="42" y="30" width="20.17" height="46" as="geometry" />
        </mxCell>
        <mxCell id="AHRMzwFQ7VdDUi4KUTGy-29" value="" style="endArrow=none;html=1;rounded=0;" edge="1" parent="AHRMzwFQ7VdDUi4KUTGy-25">
          <mxGeometry width="50" height="50" relative="1" as="geometry">
            <mxPoint x="71" y="66" as="sourcePoint" />
            <mxPoint x="91" y="80" as="targetPoint" />
          </mxGeometry>
        </mxCell>
        <mxCell id="AHRMzwFQ7VdDUi4KUTGy-32" value="i&lt;span style=&quot;font-size: 10px;&quot;&gt;&lt;sub&gt;B&lt;/sub&gt;&lt;/span&gt;" style="text;html=1;align=center;verticalAlign=middle;resizable=0;points=[];autosize=1;strokeColor=none;fillColor=none;rotation=305;" vertex="1" parent="AHRMzwFQ7VdDUi4KUTGy-25">
          <mxGeometry x="39" y="76" width="30" height="30" as="geometry" />
        </mxCell>
        <mxCell id="AHRMzwFQ7VdDUi4KUTGy-31" value="L&lt;span style=&quot;font-size: 10px;&quot;&gt;&lt;sub&gt;B&lt;/sub&gt;&lt;/span&gt;" style="text;html=1;align=center;verticalAlign=middle;resizable=0;points=[];autosize=1;strokeColor=none;fillColor=none;rotation=305;" vertex="1" parent="AHRMzwFQ7VdDUi4KUTGy-25">
          <mxGeometry x="-14" y="38" width="40" height="30" as="geometry" />
        </mxCell>
        <mxCell id="AHRMzwFQ7VdDUi4KUTGy-30" value="R&lt;span style=&quot;font-size: 8.33333px;&quot;&gt;&lt;sub&gt;s&lt;/sub&gt;&lt;/span&gt;" style="text;html=1;align=center;verticalAlign=middle;resizable=0;points=[];autosize=1;strokeColor=none;fillColor=none;rotation=305;" vertex="1" parent="AHRMzwFQ7VdDUi4KUTGy-25">
          <mxGeometry x="13" y="60" width="40" height="30" as="geometry" />
        </mxCell>
        <mxCell id="AHRMzwFQ7VdDUi4KUTGy-39" value="" style="endArrow=classic;html=1;rounded=0;" edge="1" parent="AHRMzwFQ7VdDUi4KUTGy-25">
          <mxGeometry width="50" height="50" relative="1" as="geometry">
            <mxPoint x="76" y="92" as="sourcePoint" />
            <mxPoint x="53" y="76" as="targetPoint" />
          </mxGeometry>
        </mxCell>
        <mxCell id="AHRMzwFQ7VdDUi4KUTGy-40" value="" style="group;rotation=-130;" vertex="1" connectable="0" parent="1">
          <mxGeometry x="161" y="228" width="70" height="121.85" as="geometry" />
        </mxCell>
        <mxCell id="AHRMzwFQ7VdDUi4KUTGy-41" value="" style="endArrow=none;html=1;rounded=0;" edge="1" parent="AHRMzwFQ7VdDUi4KUTGy-40">
          <mxGeometry width="50" height="50" relative="1" as="geometry">
            <mxPoint x="94" y="33" as="sourcePoint" />
            <mxPoint x="77" y="47" as="targetPoint" />
          </mxGeometry>
        </mxCell>
        <mxCell id="AHRMzwFQ7VdDUi4KUTGy-42" value="" style="pointerEvents=1;verticalLabelPosition=bottom;shadow=0;dashed=0;align=center;html=1;verticalAlign=top;shape=mxgraph.electrical.inductors.inductor_3;direction=south;rotation=-130;" vertex="1" parent="AHRMzwFQ7VdDUi4KUTGy-40">
          <mxGeometry x="60" y="37" width="8" height="32" as="geometry" />
        </mxCell>
        <mxCell id="AHRMzwFQ7VdDUi4KUTGy-43" value="" style="pointerEvents=1;verticalLabelPosition=bottom;shadow=0;dashed=0;align=center;html=1;verticalAlign=top;shape=mxgraph.electrical.resistors.resistor_2;direction=south;rotation=-130;" vertex="1" parent="AHRMzwFQ7VdDUi4KUTGy-40">
          <mxGeometry x="28" y="57" width="20.17" height="46" as="geometry" />
        </mxCell>
        <mxCell id="AHRMzwFQ7VdDUi4KUTGy-44" value="" style="endArrow=none;html=1;rounded=0;" edge="1" parent="AHRMzwFQ7VdDUi4KUTGy-40">
          <mxGeometry width="50" height="50" relative="1" as="geometry">
            <mxPoint x="20" y="96" as="sourcePoint" />
            <mxPoint x="1" y="111" as="targetPoint" />
          </mxGeometry>
        </mxCell>
        <mxCell id="AHRMzwFQ7VdDUi4KUTGy-45" value="i&lt;span style=&quot;font-size: 10px;&quot;&gt;&lt;sub&gt;C&lt;/sub&gt;&lt;/span&gt;" style="text;html=1;align=center;verticalAlign=middle;resizable=0;points=[];autosize=1;strokeColor=none;fillColor=none;rotation=50;" vertex="1" parent="AHRMzwFQ7VdDUi4KUTGy-40">
          <mxGeometry x="-15" y="57" width="30" height="30" as="geometry" />
        </mxCell>
        <mxCell id="AHRMzwFQ7VdDUi4KUTGy-46" value="L&lt;span style=&quot;font-size: 10px;&quot;&gt;&lt;sub&gt;C&lt;/sub&gt;&lt;/span&gt;" style="text;html=1;align=center;verticalAlign=middle;resizable=0;points=[];autosize=1;strokeColor=none;fillColor=none;rotation=50;" vertex="1" parent="AHRMzwFQ7VdDUi4KUTGy-40">
          <mxGeometry x="30" y="21" width="40" height="30" as="geometry" />
        </mxCell>
        <mxCell id="AHRMzwFQ7VdDUi4KUTGy-47" value="R&lt;span style=&quot;font-size: 8.33333px;&quot;&gt;&lt;sub&gt;s&lt;/sub&gt;&lt;/span&gt;" style="text;html=1;align=center;verticalAlign=middle;resizable=0;points=[];autosize=1;strokeColor=none;fillColor=none;rotation=50;" vertex="1" parent="AHRMzwFQ7VdDUi4KUTGy-40">
          <mxGeometry x="1" y="41" width="40" height="30" as="geometry" />
        </mxCell>
        <mxCell id="AHRMzwFQ7VdDUi4KUTGy-48" value="" style="endArrow=classic;html=1;rounded=0;" edge="1" parent="AHRMzwFQ7VdDUi4KUTGy-40">
          <mxGeometry width="50" height="50" relative="1" as="geometry">
            <mxPoint x="-7" y="93" as="sourcePoint" />
            <mxPoint x="14" y="75" as="targetPoint" />
          </mxGeometry>
        </mxCell>
        <mxCell id="AHRMzwFQ7VdDUi4KUTGy-50" value="" style="verticalLabelPosition=bottom;verticalAlign=top;html=1;shape=mxgraph.basic.arc;startAngle=0.6408627587152768;endAngle=0;" vertex="1" parent="1">
          <mxGeometry x="219" y="146" width="140" height="140" as="geometry" />
        </mxCell>
        <mxCell id="AHRMzwFQ7VdDUi4KUTGy-51" value="L&lt;sub&gt;CA&lt;/sub&gt;" style="text;html=1;align=center;verticalAlign=middle;resizable=0;points=[];autosize=1;strokeColor=none;fillColor=none;" vertex="1" parent="1">
          <mxGeometry x="182" y="178" width="40" height="30" as="geometry" />
        </mxCell>
        <mxCell id="AHRMzwFQ7VdDUi4KUTGy-52" value="" style="verticalLabelPosition=bottom;verticalAlign=top;html=1;shape=mxgraph.basic.arc;startAngle=0.5063628056739959;endAngle=0.8564447609354929;direction=west;" vertex="1" parent="1">
          <mxGeometry x="240" y="146" width="140" height="140" as="geometry" />
        </mxCell>
        <mxCell id="AHRMzwFQ7VdDUi4KUTGy-53" value="L&lt;sub&gt;AB&lt;/sub&gt;" style="text;html=1;align=center;verticalAlign=middle;resizable=0;points=[];autosize=1;strokeColor=none;fillColor=none;" vertex="1" parent="1">
          <mxGeometry x="378.09000000000003" y="170" width="40" height="30" as="geometry" />
        </mxCell>
      </root>
    </mxGraphModel>
  </diagram>
</mxfile>
